<svg xmlns="http://www.w3.org/2000/svg" viewBox="0 0 32 40" width="32" height="40" aria-hidden="true" focusable="false">
  <path d="M16 0C7.163 0 0 7.163 0 16c0 10.4 16 24 16 24s16-13.6 16-24C32 7.163 24.837 0 16 0z" fill="#e65100" stroke="#bf360c" stroke-width="1.5"/>
  <circle cx="16" cy="16" r="9" fill="#fff"/>
  <!-- Meals: fork (left) and knife (right). -->
  <g fill="#bf360c">
    <!-- Fork: 3 tines, yoke, handle. -->
    <rect x="11.3" y="9.5" width="0.7" height="3" rx="0.2"/>
    <rect x="12.65" y="9.5" width="0.7" height="3" rx="0.2"/>
    <rect x="14" y="9.5" width="0.7" height="3" rx="0.2"/>
    <rect x="11.1" y="12.3" width="3.8" height="1.3" rx="0.4"/>
    <rect x="12.4" y="13.5" width="1.2" height="8.7" rx="0.4"/>
    <!-- Knife: triangular blade and handle. -->
    <path d="M 19 9.2 L 20.4 14 L 17.6 14 Z"/>
    <rect x="18.2" y="14" width="1.6" height="8.2" rx="0.4"/>
  </g>
</svg>
